<svg width="361" height="277" viewBox="0 0 361 277" fill="none" xmlns="http://www.w3.org/2000/svg">
<rect x="157" y="10" width="77" height="266" rx="29" fill="#E1BF98"/>
<path d="M173.359 92.0541C174.48 113.243 184.613 133.139 201.653 147.606C218.692 162.074 241.327 170.001 264.854 169.74C288.382 169.479 310.993 161.05 327.988 146.205C344.984 131.361 355.057 111.241 356.115 90.0276C357.173 68.8142 349.134 48.1381 333.669 32.2957C318.204 16.4534 296.502 6.66313 273.072 4.95927C249.642 3.25541 226.287 9.76901 207.859 23.1465C189.431 36.5241 177.348 55.7369 174.12 76.7925L234.022 83.6856C235.116 76.5495 239.211 70.0379 245.456 65.504C251.702 60.9702 259.617 58.7626 267.558 59.3401C275.499 59.9175 282.854 63.2356 288.095 68.6049C293.337 73.9741 296.061 80.9816 295.703 88.1712C295.344 95.3608 291.93 102.18 286.17 107.211C280.41 112.242 272.747 115.099 264.773 115.187C256.799 115.275 249.128 112.589 243.353 107.686C237.578 102.782 234.144 96.0394 233.764 88.858L173.359 92.0541Z" fill="#E1BF98"/>
<path d="M145.835 38.6697C146.44 26.5345 137.044 16.0294 124.96 17.294C114.227 18.4171 103.659 20.7569 93.4882 24.2801C76.4261 30.1905 60.8396 39.3083 47.6745 51.0801C34.5094 62.8519 24.0403 77.0322 16.9024 92.7605C9.76463 108.489 6.10697 125.437 6.15144 142.577C6.19591 159.716 9.94158 176.69 17.1611 192.468C24.3807 208.246 34.9236 222.498 48.15 234.361C61.3764 246.224 77.0105 255.449 94.1036 261.477C104.212 265.042 114.705 267.445 125.356 268.652C137.532 270.031 147.036 259.432 146.363 247.196L144.721 217.365C144.06 205.336 133.544 196.476 122.122 192.646C121.834 192.55 121.547 192.451 121.26 192.35C114.144 189.84 107.635 185.999 102.128 181.06C96.6215 176.122 92.2321 170.188 89.2263 163.619C86.2205 157.05 84.6611 149.983 84.6426 142.847C84.6241 135.711 86.1469 128.655 89.1186 122.107C92.0904 115.558 96.449 109.655 101.93 104.754C107.411 99.8526 113.901 96.0566 121.004 93.5958C121.197 93.5292 121.389 93.4636 121.582 93.399C133.104 89.543 143.745 80.6011 144.35 68.466L145.835 38.6697Z" fill="#1F1F1F"/>
</svg>
